<?xml version="1.0" encoding="utf-8"?>
<!-- Svg Vector Icons : http://www.onlinewebfonts.com/icon -->
<!DOCTYPE svg PUBLIC "-//W3C//DTD SVG 1.1//EN" "http://www.w3.org/Graphics/SVG/1.1/DTD/svg11.dtd">
<svg version="1.1" xmlns="http://www.w3.org/2000/svg" xmlns:xlink="http://www.w3.org/1999/xlink" x="0px" y="0px" viewBox="0 0 1000 1000" enable-background="new 0 0 1000 1000" xml:space="preserve">
<metadata> Svg Vector Icons : http://www.onlinewebfonts.com/icon </metadata>
<g><g><path d="M745,10.2L617.9,10c-142.8,0-235,94.7-235,241.2v111.2H255.1c-11,0-20,9-20,20v161.1c0,11,9,20,20,20h127.8V970c0,11,8.9,20,20,20h166.7c11,0,20-9,20-20V563.5h149.4c11,0,20-8.9,20-20l0.1-161.1c0-5.3-2.1-10.4-5.9-14.1c-3.7-3.8-8.8-5.9-14.1-5.9H589.5v-94.3c0-45.3,10.8-68.3,69.8-68.3l85.6,0c11,0,20-9,20-20V30.2C764.9,19.2,756,10.2,745,10.2z"/></g><g></g><g></g><g></g><g></g><g></g><g></g><g></g><g></g><g></g><g></g><g></g><g></g><g></g><g></g><g></g></g>
</svg>